<?xml version="1.0" encoding="UTF-8" standalone="no"?>
<!-- Generator: Adobe Illustrator 24.1.2, SVG Export Plug-In . SVG Version: 6.00 Build 0)  -->

<svg
   version="1.1"
   id="Layer_1"
   x="0px"
   y="0px"
   width="22px"
   height="14px"
   viewBox="0 0 22 14"
   style="enable-background:new 0 0 22 14;"
   xml:space="preserve"
   sodipodi:docname="logo-loader.svg"
   inkscape:version="1.2.2 (732a01da63, 2022-12-09)"
   xmlns:inkscape="http://www.inkscape.org/namespaces/inkscape"
   xmlns:sodipodi="http://sodipodi.sourceforge.net/DTD/sodipodi-0.dtd"
   xmlns="http://www.w3.org/2000/svg"
   xmlns:svg="http://www.w3.org/2000/svg"><defs
   id="defs9" /><sodipodi:namedview
   id="namedview7"
   pagecolor="#ffffff"
   bordercolor="#000000"
   borderopacity="0.25"
   inkscape:showpageshadow="2"
   inkscape:pageopacity="0.0"
   inkscape:pagecheckerboard="0"
   inkscape:deskcolor="#d1d1d1"
   showgrid="false"
   inkscape:zoom="18.979389"
   inkscape:cx="9.8527935"
   inkscape:cy="4.4785425"
   inkscape:window-width="1920"
   inkscape:window-height="1009"
   inkscape:window-x="-8"
   inkscape:window-y="-8"
   inkscape:window-maximized="1"
   inkscape:current-layer="Layer_1" />
<style
   type="text/css"
   id="style2">
	.st0{fill:#FFFFFF;}
</style>

<g
   id="g592"
   transform="matrix(1.1569434,0,0,1.1569434,-3.9657735,-0.82829588)"
   style="fill:#ffffff"
   inkscape:export-filename="logo-loader.png"
   inkscape:export-xdpi="96"
   inkscape:export-ydpi="96"><path
     d="m 7.8680329,5.2354317 c 0.39962,-0.026623 0.612601,0.2665068 -0.239604,0.3463747 -0.852485,0.079868 -1.944575,0.3194719 -1.917952,0.6658467 0.02662,0.3463748 2.024443,0.7457146 6.2596871,1.0122214 4.235244,0.2665068 4.634864,0.7457146 4.821503,1.4650867 0.186359,0.7190922 -1.491709,2.6370438 -3.862527,2.6104208 -2.370818,-0.02662 -4.0488861,-1.8114606 -4.5283741,-3.4895288 0,0 -2.770157,-0.39962 -3.675888,-0.7457146 C 3.8191472,6.7537638 3.4195272,6.2742757 4.6183874,5.848033 5.8169669,5.4217903 7.8680329,5.2354317 7.8680329,5.2354317"
     style="fill:#ffffff;fill-opacity:1;fill-rule:nonzero;stroke:none;stroke-width:0.280238"
     id="path146" /><g
     id="g148"
     transform="matrix(0.28023848,0,0,-0.28023848,18.003195,8.2972892)"
     style="fill:#ffffff"><path
       d="m 0,0 c -1.426,-0.095 -2.186,0.951 0.855,1.236 3.042,0.285 6.939,1.14 6.844,2.376 -0.095,1.236 -7.224,2.661 -22.337,3.612 -15.113,0.95 -16.539,2.661 -17.205,5.228 -0.665,2.566 5.323,9.41 13.783,9.315 8.46,-0.095 14.448,-6.464 16.159,-12.452 0,0 9.885,-1.426 13.117,-2.661 3.232,-1.236 4.658,-2.947 0.38,-4.468 C 7.319,0.665 0,0 0,0"
       style="fill:#ffffff;fill-opacity:1;fill-rule:nonzero;stroke:none"
       id="path150" /></g></g></svg>
