<?xml version="1.0" encoding="UTF-8" standalone="no"?>
<!-- Generator: Adobe Illustrator 24.1.2, SVG Export Plug-In . SVG Version: 6.00 Build 0)  -->

<svg
   version="1.1"
   id="Layer_1"
   x="0px"
   y="0px"
   width="178px"
   height="82px"
   viewBox="0 0 178 82"
   style="enable-background:new 0 0 178 82;"
   xml:space="preserve"
   sodipodi:docname="logo.svg"
   inkscape:version="1.2.2 (732a01da63, 2022-12-09)"
   xmlns:inkscape="http://www.inkscape.org/namespaces/inkscape"
   xmlns:sodipodi="http://sodipodi.sourceforge.net/DTD/sodipodi-0.dtd"
   xmlns="http://www.w3.org/2000/svg"
   xmlns:svg="http://www.w3.org/2000/svg"><defs
   id="defs9" /><sodipodi:namedview
   id="namedview7"
   pagecolor="#ffffff"
   bordercolor="#000000"
   borderopacity="0.25"
   inkscape:showpageshadow="2"
   inkscape:pageopacity="0.0"
   inkscape:pagecheckerboard="0"
   inkscape:deskcolor="#d1d1d1"
   showgrid="false"
   inkscape:zoom="3.3174157"
   inkscape:cx="22.909399"
   inkscape:cy="56.06774"
   inkscape:window-width="1920"
   inkscape:window-height="1009"
   inkscape:window-x="1912"
   inkscape:window-y="-8"
   inkscape:window-maximized="1"
   inkscape:current-layer="Layer_1" />
<style
   type="text/css"
   id="style2">
	.st0{fill:#FFFFFF;}
</style>

<g
   aria-label="AYBARS
GLOBAL"
   id="text346"
   style="font-weight:bold;font-size:45.359px;line-height:0.9;font-family:ArtinSharp;-inkscape-font-specification:'ArtinSharp Bold';text-align:end;text-anchor:end;fill:#ffffff;stroke-width:5.80195;stroke-linecap:round;paint-order:markers stroke fill"><path
     d="M 30.285787,23.401241 28.469655,13.36822 q -0.243627,-1.018806 -1.218137,-1.373173 -0.952362,-0.354367 -1.926871,0 -0.97451,0.33222 -1.218138,1.373173 l -3.920187,21.616399 h -5.581283 l 3.964483,-21.81573 q 0.11074,-0.487255 0.442959,-1.705393 0.75303,-2.2812384 2.657754,-3.743003 1.993315,-1.5282086 4.606773,-1.5282086 2.613458,0 4.606774,1.5503565 2.015463,1.5282085 2.746346,3.9644831 l 0.398663,1.461765 3.942335,21.81573 h -5.581283 l -1.107398,-6.04639 h -7.419563 l -1.373173,-5.536988 z"
     style="text-align:center;text-anchor:middle"
     id="path236" /><path
     d="M 53.518986,23.711313 V 34.984619 H 48.026295 V 23.733461 q -0.332219,-0.33222 -0.642291,-0.841622 L 38.414085,6.1922844 h 6.223574 L 50.772641,17.576331 56.28748,7.2996819 63.153345,6.1922844 54.161277,22.869691 q -0.287923,0.465107 -0.642291,0.841622 z"
     style="text-align:center;text-anchor:middle"
     id="path238" /><path
     d="m 78.368986,6.1922844 q 2.36983,0.066444 4.274554,1.2181373 1.926872,1.1516933 3.056417,3.1007133 1.151693,1.926871 1.151693,4.296702 0,2.81279 -1.771836,5.094028 1.351025,1.107398 2.126204,2.502719 0.797326,1.373173 0.797326,3.964483 0,1.72754 -0.97451,3.632263 -0.97451,1.882576 -2.635606,3.277897 -1.661096,1.373173 -3.787299,1.705392 H 72.05682 L 70.683647,29.46978 h 8.704144 q 1.284581,0 2.192647,-0.908066 0.908066,-0.908066 0.908066,-2.192647 0,-1.284581 -0.908066,-2.192647 -0.908066,-0.908066 -2.192647,-0.908066 H 72.05682 l -1.373173,-5.51484 h 7.552451 q 1.284581,0 2.192647,-0.908066 0.908066,-0.908066 0.908066,-2.037611 0,-1.284581 -0.908066,-2.192647 -0.908066,-0.908066 -2.192647,-0.908066 H 71.30379 q -0.287924,0.06644 -0.531551,0.310071 -0.332219,0.332219 -0.332219,0.819474 v 22.14795 H 64.92518 V 12.748078 q 0,-2.7684942 1.926872,-4.6732178 1.926871,-1.8825758 4.717513,-1.8825758 z"
     style="text-align:center;text-anchor:middle"
     id="path240" /><path
     d="M 105.23445,23.401241 103.41832,13.36822 q -0.24363,-1.018806 -1.21814,-1.373173 -0.95236,-0.354367 -1.92687,0 -0.974511,0.33222 -1.218139,1.373173 l -3.920187,21.616399 h -5.581283 l 3.964483,-21.81573 q 0.110739,-0.487255 0.442959,-1.705393 0.75303,-2.2812384 2.657754,-3.743003 1.993315,-1.5282086 4.606773,-1.5282086 2.61346,0 4.60677,1.5503565 2.01547,1.5282085 2.74635,3.9644831 l 0.39866,1.461765 3.94234,21.81573 h -5.58129 l -1.10739,-6.04639 h -7.419566 l -1.373173,-5.536988 z"
     style="text-align:center;text-anchor:middle"
     id="path242" /><path
     d="m 123.99376,26.169735 h -2.21479 l -1.37318,-5.514839 h 9.05851 q 1.28459,0 2.19265,-0.908066 0.90807,-0.908066 0.90807,-2.192647 v -2.746346 q 0,-1.284581 -0.90807,-2.192647 -0.90806,-0.908066 -2.19265,-0.908066 h -8.39407 q -0.28792,0.06644 -0.53155,0.310071 -0.33222,0.332219 -0.33222,0.819474 v 22.14795 h -5.51484 V 12.748078 q 0,-2.7684942 1.92687,-4.6732178 1.92687,-1.8825758 4.71752,-1.8825758 h 8.26118 q 2.36983,0.066444 4.27456,1.2181373 1.92687,1.1516933 3.05641,3.1007133 1.1517,1.926871 1.1517,4.296702 v 2.746346 q 0,2.391978 -1.17384,4.340998 -1.1517,1.949019 -3.10072,3.100713 -1.35102,0.797326 -2.87923,1.063101 l 7.13164,8.925624 h -7.0652 z"
     style="text-align:center;text-anchor:middle"
     id="path244" /><path
     d="m 149.35317,23.31265 q -2.39198,0 -4.341,-1.151694 -1.94902,-1.151693 -3.12286,-3.100713 -1.1517,-1.949019 -1.1517,-4.31885 0,-2.369831 1.1517,-4.296702 1.17384,-1.9490198 3.12286,-3.1007132 1.94902,-1.1516934 4.341,-1.1516934 l 10.49812,0.022148 -1.26243,5.5148396 h -9.50147 q -1.21814,0.132888 -2.03761,0.97451 -0.79733,0.819474 -0.79733,2.037611 0,1.240285 0.90807,2.170499 0.90806,0.908066 2.19265,0.908066 h 2.98997 q 2.39198,0 4.341,1.173841 1.94902,1.151694 3.10071,3.100713 1.17384,1.926872 1.17384,4.296703 0,2.391978 -1.17384,4.340998 -1.15169,1.949019 -3.12286,3.122861 -1.94902,1.151693 -4.31885,1.151693 l -11.60553,-0.02215 1.26244,-5.514839 h 10.60886 q 1.21814,-0.132888 2.01547,-0.97451 0.81947,-0.86377 0.81947,-2.104055 0,-1.240286 -0.90806,-2.148352 -0.90807,-0.930213 -2.19265,-0.930213 z"
     style="text-align:center;text-anchor:middle"
     id="path246" /><path
     d="m 26.985743,70.315028 h 3.831595 q 1.063102,0 1.94902,-0.885918 0.908066,-0.885918 0.930214,-1.971168 0.02215,-0.11074 0.02215,-1.528209 -0.02215,-0.708734 -0.02215,-1.838279 h -7.35312 l 1.195989,-5.51484 h 11.67197 v 8.659849 q 0,2.36983 -1.173841,4.31885 -1.151694,1.949019 -3.100713,3.100713 -1.94902,1.151693 -4.340998,1.151693 h -3.610116 q -4.030927,-0.0443 -7.308824,-1.949019 -3.255748,-1.926872 -5.204768,-5.204769 -1.949019,-3.277896 -1.949019,-7.242379 0,-3.964483 1.949019,-7.24238 1.94902,-3.277896 5.204768,-5.18262 3.277897,-1.926872 7.308824,-1.971168 H 39.211411 L 37.70535,52.508076 H 26.985743 q -2.458423,0 -4.496034,1.195989 -2.037611,1.19599 -3.255749,3.233601 -1.195989,2.015463 -1.195989,4.473886 0,2.458422 1.195989,4.496034 1.218138,2.015463 3.233601,3.211452 2.015463,1.173842 4.518182,1.19599 z"
     style="text-align:center;text-anchor:middle"
     id="path248" /><path
     d="m 48.912213,75.807719 q -1.506061,0 -3.03427,-0.620142 -1.528208,-0.620143 -2.524866,-2.104056 -0.996658,-1.50606 -1.040953,-4.09737 V 48.100634 l 5.492691,-1.107398 v 22.391578 q 0.02215,0.442959 0.354367,0.664438 0.354367,0.199332 0.775179,0.199332 h 13.908912 l -1.262433,5.559135 z"
     style="text-align:center;text-anchor:middle"
     id="path250" /><path
     d="m 77.305882,52.508076 q -2.502719,0.02215 -4.518182,1.218137 -2.015464,1.173842 -3.233601,3.211453 -1.195989,2.015463 -1.195989,4.473886 0,2.458422 1.195989,4.496034 1.218137,2.015463 3.255749,3.211452 2.037611,1.19599 4.496034,1.19599 h 0.75303 q 2.059759,0 3.898039,-0.885918 1.83828,-0.908066 3.145009,-2.524867 1.904724,-2.391978 1.904724,-5.492691 0,-2.458423 -1.218138,-4.473886 -1.218137,-2.037611 -3.255748,-3.233601 -2.015464,-1.195989 -4.473886,-1.195989 z m 9.50147,20.398262 q -1.638948,1.262433 -3.942335,2.081907 -2.281239,0.819474 -4.806105,0.819474 h -0.75303 q -4.053075,-0.08859 -7.308824,-1.993315 -3.255748,-1.904724 -5.204768,-5.138325 -1.94902,-3.255748 -1.94902,-7.264527 0,-3.964483 1.94902,-7.24238 1.94902,-3.277896 5.204768,-5.18262 3.277897,-1.926872 7.308824,-1.971168 h 0.75303 q 3.986631,0 7.264527,1.94902 3.277897,1.926872 5.226917,5.204768 1.971167,3.277897 1.971167,7.24238 0,3.300044 -1.439617,6.245722 -1.439616,2.945677 -4.053074,5.049732 z"
     style="text-align:center;text-anchor:middle"
     id="path252" /><path
     d="m 108.62309,47.015384 q 2.36983,0.06644 4.27455,1.218138 1.92687,1.151693 3.05642,3.100713 1.15169,1.926871 1.15169,4.296702 0,2.812789 -1.77184,5.094028 1.35103,1.107398 2.12621,2.502719 0.79732,1.373173 0.79732,3.964483 0,1.72754 -0.97451,3.632263 -0.97451,1.882576 -2.6356,3.277897 -1.6611,1.373173 -3.7873,1.705392 h -8.54911 l -1.37317,-5.514839 h 8.70414 q 1.28458,0 2.19265,-0.908066 0.90806,-0.908066 0.90806,-2.192647 0,-1.284581 -0.90806,-2.192647 -0.90807,-0.908066 -2.19265,-0.908066 h -7.33097 l -1.37317,-5.51484 h 7.55245 q 1.28458,0 2.19265,-0.908066 0.90806,-0.908066 0.90806,-2.037611 0,-1.284581 -0.90806,-2.192647 -0.90807,-0.908066 -2.19265,-0.908066 h -6.93231 q -0.28792,0.06644 -0.53155,0.310071 -0.33222,0.332219 -0.33222,0.819474 v 22.14795 H 95.179281 V 53.571178 q 0,-2.768494 1.926871,-4.673218 1.926872,-1.882576 4.717518,-1.882576 z"
     style="text-align:center;text-anchor:middle"
     id="path254" /><path
     d="M 135.48855,64.224341 133.67242,54.19132 q -0.24363,-1.018806 -1.21814,-1.373173 -0.95236,-0.354367 -1.92687,0 -0.97451,0.332219 -1.21814,1.373173 l -3.92019,21.616399 h -5.58128 l 3.96448,-21.81573 q 0.11074,-0.487255 0.44296,-1.705393 0.75303,-2.281238 2.65776,-3.743003 1.99331,-1.528209 4.60677,-1.528209 2.61346,0 4.60677,1.550357 2.01547,1.528208 2.74635,3.964483 l 0.39866,1.461765 3.94234,21.81573 h -5.58129 l -1.10739,-6.04639 h -7.41957 l -1.37317,-5.536988 z"
     style="text-align:center;text-anchor:middle"
     id="path256" /><path
     d="m 151.54581,75.807719 q -1.50606,0 -3.03427,-0.620142 -1.52821,-0.620143 -2.52486,-2.104056 -0.99666,-1.50606 -1.04096,-4.09737 V 48.100634 l 5.49269,-1.107398 v 22.391578 q 0.0221,0.442959 0.35437,0.664438 0.35437,0.199332 0.77518,0.199332 h 13.90891 l -1.26243,5.559135 z"
     style="text-align:center;text-anchor:middle"
     id="path258" /></g></svg>
