<?xml version="1.0" encoding="UTF-8" standalone="no"?>
<!-- Created with Inkscape (http://www.inkscape.org/) -->

<svg
   version="1.1"
   id="svg2"
   width="186.84682"
   height="182.58533"
   viewBox="0 0 186.84682 182.58533"
   sodipodi:docname="Logo_231209_133629.pdf"
   xmlns:inkscape="http://www.inkscape.org/namespaces/inkscape"
   xmlns:sodipodi="http://sodipodi.sourceforge.net/DTD/sodipodi-0.dtd"
   xmlns="http://www.w3.org/2000/svg"
   xmlns:svg="http://www.w3.org/2000/svg">
  <defs
     id="defs6">
    <clipPath
       clipPathUnits="userSpaceOnUse"
       id="clipPath18">
      <path
         d="M 0,255.446 H 258.8 V 0 H 0 Z"
         id="path16" />
    </clipPath>
  </defs>
  <sodipodi:namedview
     id="namedview4"
     pagecolor="#ffffff"
     bordercolor="#000000"
     borderopacity="0.25"
     inkscape:showpageshadow="2"
     inkscape:pageopacity="0.0"
     inkscape:pagecheckerboard="0"
     inkscape:deskcolor="#d1d1d1"
     showgrid="false" />
  <g
     id="g10"
     inkscape:groupmode="layer"
     inkscape:label="Page 1"
     transform="matrix(1.3333333,0,0,-1.3333333,-79.110131,261.58946)">
    <g
       id="g12">
      <g
         id="g14"
         clip-path="url(#clipPath18)">
        <g
           id="g20"
           transform="translate(89.92,86.6533)">
          <path
             d="m 0,0 c -0.537,0.523 -0.94,1.089 -1.21,1.697 -0.269,0.608 -0.41,1.224 -0.421,1.848 -0.012,0.624 0.105,1.238 0.35,1.844 0.244,0.604 0.616,1.162 1.114,1.673 l 0.019,0.019 C 0.331,7.572 0.87,7.944 1.468,8.198 2.066,8.451 2.684,8.584 3.321,8.595 3.958,8.606 4.587,8.491 5.208,8.25 5.829,8.009 6.401,7.633 6.925,7.122 7.233,6.822 7.492,6.527 7.703,6.239 7.913,5.951 8.088,5.662 8.228,5.373 8.368,5.083 8.475,4.787 8.55,4.484 8.625,4.182 8.677,3.868 8.707,3.545 L 6.634,3.324 C 6.611,3.563 6.576,3.79 6.528,4.003 6.48,4.216 6.414,4.42 6.331,4.616 6.248,4.812 6.14,5.007 6.008,5.199 5.876,5.392 5.712,5.584 5.516,5.775 5.241,6.043 4.928,6.236 4.577,6.354 4.226,6.473 3.866,6.523 3.497,6.505 3.127,6.487 2.766,6.397 2.412,6.237 2.057,6.077 1.736,5.85 1.448,5.554 L 1.429,5.534 C 1.122,5.219 0.889,4.879 0.732,4.515 0.574,4.149 0.492,3.777 0.487,3.398 0.482,3.02 0.552,2.653 0.699,2.299 0.845,1.945 1.073,1.618 1.38,1.317 1.944,0.769 2.554,0.444 3.21,0.344 L 4.175,1.334 2.652,2.818 3.926,4.125 6.913,1.213 4,-1.773 C 3.353,-1.73 2.682,-1.577 1.986,-1.313 1.291,-1.051 0.629,-0.613 0,0"
             style="fill:#143670;fill-opacity:1;fill-rule:nonzero;stroke:none"
             id="path22" />
        </g>
        <g
           id="g24"
           transform="translate(105.0879,87.1387)">
          <path
             d="m 0,0 1.879,-0.967 -3.522,-6.845 4.258,-2.19 -0.873,-1.696 -6.137,3.158 z"
             style="fill:#143670;fill-opacity:1;fill-rule:nonzero;stroke:none"
             id="path26" />
        </g>
        <g
           id="g28"
           transform="translate(120.2447,73.4629)">
          <path
             d="m 0,0 c 0.415,-0.069 0.812,-0.057 1.189,0.037 0.377,0.095 0.713,0.256 1.006,0.485 0.294,0.229 0.54,0.51 0.74,0.843 0.2,0.333 0.334,0.702 0.401,1.109 L 3.341,2.501 C 3.409,2.906 3.403,3.302 3.324,3.686 3.245,4.07 3.1,4.419 2.888,4.733 2.676,5.047 2.408,5.312 2.082,5.529 1.757,5.746 1.387,5.89 0.972,5.959 0.547,6.03 0.149,6.018 -0.224,5.923 -0.597,5.827 -0.93,5.666 -1.224,5.437 -1.517,5.208 -1.764,4.927 -1.963,4.594 -2.163,4.261 -2.297,3.892 -2.365,3.485 L -2.369,3.458 C -2.438,3.053 -2.432,2.657 -2.353,2.273 -2.273,1.889 -2.128,1.54 -1.916,1.226 -1.704,0.912 -1.438,0.647 -1.117,0.431 -0.796,0.215 -0.424,0.071 0,0 m -0.349,-1.917 c -0.731,0.123 -1.381,0.364 -1.952,0.724 -0.57,0.36 -1.042,0.797 -1.415,1.309 C -4.089,0.628 -4.351,1.2 -4.5,1.833 -4.648,2.466 -4.666,3.12 -4.553,3.797 l 0.005,0.027 c 0.113,0.676 0.346,1.289 0.698,1.837 0.351,0.549 0.788,1.009 1.309,1.381 0.522,0.371 1.113,0.634 1.774,0.787 C -0.105,7.983 0.59,7.998 1.321,7.876 2.052,7.753 2.702,7.512 3.272,7.152 3.843,6.792 4.314,6.355 4.688,5.844 5.061,5.331 5.322,4.758 5.471,4.126 5.62,3.493 5.638,2.839 5.524,2.162 L 5.52,2.135 C 5.406,1.459 5.173,0.846 4.822,0.298 4.47,-0.251 4.034,-0.711 3.512,-1.083 2.991,-1.454 2.399,-1.717 1.738,-1.87 1.077,-2.023 0.381,-2.039 -0.349,-1.917"
             style="fill:#143670;fill-opacity:1;fill-rule:nonzero;stroke:none"
             id="path30" />
        </g>
        <g
           id="g32"
           transform="translate(138.5723,73.5293)">
          <path
             d="M 0,0 C 0.461,0.071 0.81,0.21 1.047,0.418 1.283,0.625 1.374,0.905 1.32,1.258 L 1.315,1.285 C 1.268,1.602 1.106,1.834 0.834,1.981 0.562,2.129 0.154,2.162 -0.389,2.078 l -2.414,-0.37 0.322,-2.089 z m -1.144,3.739 c 0.461,0.072 0.816,0.206 1.063,0.407 0.247,0.199 0.343,0.475 0.289,0.829 L 0.204,5.001 C 0.155,5.317 0,5.541 -0.261,5.673 -0.521,5.804 -0.873,5.835 -1.316,5.768 L -3.378,5.451 -3.069,3.443 Z m -4.549,3.23 4.4,0.676 C -0.201,7.812 0.668,7.659 1.313,7.185 1.813,6.817 2.112,6.312 2.211,5.671 L 2.215,5.644 C 2.257,5.372 2.26,5.127 2.225,4.909 2.188,4.69 2.128,4.489 2.041,4.305 1.955,4.12 1.847,3.953 1.718,3.804 1.59,3.654 1.446,3.521 1.29,3.405 1.871,3.281 2.347,3.065 2.716,2.757 3.086,2.447 3.319,1.977 3.417,1.344 L 3.421,1.317 C 3.487,0.883 3.463,0.49 3.346,0.14 3.229,-0.212 3.031,-0.52 2.753,-0.784 2.475,-1.05 2.125,-1.27 1.704,-1.445 1.283,-1.621 0.807,-1.75 0.273,-1.832 l -4.507,-0.692 z"
             style="fill:#143670;fill-opacity:1;fill-rule:nonzero;stroke:none"
             id="path34" />
        </g>
        <g
           id="g36"
           transform="translate(154.2549,81.1309)">
          <path
             d="m 0,0 -2.542,2.206 0.264,-3.355 z m -4.531,4.046 1.739,0.878 8.033,-6.782 -1.972,-0.996 -1.754,1.528 -3.626,-1.829 0.185,-2.319 -1.923,-0.97 z"
             style="fill:#143670;fill-opacity:1;fill-rule:nonzero;stroke:none"
             id="path38" />
        </g>
        <g
           id="g40"
           transform="translate(159.8594,91.5371)">
          <path
             d="m 0,0 1.523,1.463 5.334,-5.551 3.453,3.317 1.321,-1.375 -4.977,-4.781 z"
             style="fill:#143670;fill-opacity:1;fill-rule:nonzero;stroke:none"
             id="path42" />
        </g>
        <g
           id="g44"
           transform="translate(87.1324,153.6787)">
          <path
             d="m 0,0 -7.146,0.849 4.625,-5.407 z m 0.921,-8.285 c 0.082,-0.045 0.159,-0.051 0.231,-0.016 0.073,0.034 0.159,0.142 0.258,0.322 l 0.294,-0.164 -2.398,-4.336 -0.294,0.163 c 0.066,0.197 0.085,0.357 0.057,0.48 -0.028,0.122 -0.118,0.278 -0.269,0.468 -0.063,0.078 -0.238,0.281 -0.526,0.611 -0.287,0.329 -0.645,0.751 -1.075,1.267 -0.43,0.514 -0.907,1.088 -1.432,1.72 -0.526,0.631 -1.063,1.27 -1.613,1.916 -0.55,0.645 -1.085,1.277 -1.607,1.896 -0.521,0.619 -0.989,1.171 -1.403,1.656 -0.415,0.486 -0.751,0.879 -1.01,1.183 -0.259,0.303 -0.397,0.459 -0.413,0.469 -0.082,0.045 -0.168,0.023 -0.26,-0.065 -0.091,-0.089 -0.177,-0.185 -0.256,-0.29 l -0.294,0.162 3.537,6.396 0.294,-0.163 C -7.314,5.25 -7.348,5.13 -7.361,5.03 -7.374,4.931 -7.314,4.845 -7.184,4.772 -7.151,4.755 -6.896,4.715 -6.418,4.653 -5.94,4.591 -5.318,4.509 -4.555,4.406 -3.79,4.304 -2.923,4.192 -1.955,4.073 -0.986,3.953 0.005,3.837 1.02,3.724 2.034,3.61 3.021,3.496 3.981,3.381 4.942,3.266 5.805,3.167 6.57,3.086 6.936,3.054 7.193,3.056 7.341,3.091 7.488,3.126 7.603,3.218 7.685,3.365 L 7.979,3.202 5.309,-1.625 5.015,-1.462 c 0.155,0.319 0.143,0.528 -0.037,0.628 -0.016,0.009 -0.149,0.029 -0.398,0.061 -0.249,0.031 -0.528,0.067 -0.835,0.11 -0.307,0.042 -0.6,0.081 -0.879,0.117 -0.279,0.037 -0.463,0.069 -0.553,0.099 l -3.212,-5.807 c 0.35,-0.408 0.638,-0.737 0.861,-0.988 0.224,-0.252 0.401,-0.452 0.533,-0.599 0.131,-0.148 0.227,-0.254 0.287,-0.319 0.06,-0.066 0.107,-0.107 0.139,-0.125"
             style="fill:#143670;fill-opacity:1;fill-rule:nonzero;stroke:none"
             id="path46" />
        </g>
        <g
           id="g48"
           transform="translate(101.0489,179.9473)">
          <path
             d="M 0,0 0.2,-0.27 C 0.08,-0.359 0.009,-0.476 -0.012,-0.619 -0.033,-0.763 -0.042,-0.915 -0.04,-1.075 l 0.198,-9.297 3.25,-4.387 c 0.078,-0.106 0.175,-0.167 0.293,-0.184 0.117,-0.017 0.33,0.064 0.637,0.245 l 0.2,-0.27 -4.635,-3.433 -0.2,0.27 c 0.263,0.24 0.403,0.42 0.421,0.538 0.017,0.117 -0.013,0.228 -0.091,0.333 l -2.933,3.96 -8.865,2.981 c -0.495,0.167 -0.811,0.264 -0.947,0.291 -0.137,0.027 -0.257,0.001 -0.362,-0.076 l -0.2,0.27 4.95,3.667 0.199,-0.27 c -0.134,-0.1 -0.25,-0.21 -0.349,-0.329 -0.097,-0.119 -0.102,-0.238 -0.013,-0.358 0.045,-0.06 0.276,-0.168 0.693,-0.323 0.417,-0.156 0.901,-0.331 1.453,-0.527 0.551,-0.195 1.119,-0.39 1.704,-0.584 0.585,-0.194 1.074,-0.366 1.465,-0.518 -0.011,0.108 -0.016,0.319 -0.016,0.633 0,0.314 -0.007,0.674 -0.019,1.084 -0.013,0.408 -0.022,0.843 -0.026,1.305 -0.005,0.461 -0.016,0.883 -0.032,1.265 -0.016,0.383 -0.034,0.712 -0.053,0.989 -0.019,0.277 -0.039,0.429 -0.061,0.46 -0.089,0.12 -0.201,0.153 -0.336,0.1 -0.135,-0.053 -0.255,-0.119 -0.36,-0.197 l -0.199,0.27 z"
             style="fill:#143670;fill-opacity:1;fill-rule:nonzero;stroke:none"
             id="path50" />
        </g>
        <g
           id="g52"
           transform="translate(121.4541,174.1665)">
          <path
             d="m 0,0 c 0.986,0.207 1.655,0.476 2.005,0.807 0.35,0.33 0.462,0.797 0.336,1.4 C 2.215,2.81 1.924,3.193 1.471,3.355 1.017,3.518 0.297,3.496 -0.689,3.289 l -4.659,-0.976 0.689,-3.289 z m -2.207,5.889 c 0.585,0.122 1.066,0.237 1.444,0.345 0.378,0.108 0.667,0.23 0.867,0.368 0.2,0.137 0.329,0.297 0.386,0.481 C 0.546,7.267 0.546,7.496 0.489,7.77 0.432,8.043 0.34,8.253 0.214,8.398 0.088,8.544 -0.094,8.639 -0.332,8.685 -0.571,8.73 -0.884,8.726 -1.274,8.673 -1.663,8.62 -2.15,8.533 -2.735,8.41 L -6.462,7.629 -5.934,5.108 Z m -8.802,2.962 c -0.027,0.127 -0.09,0.224 -0.19,0.289 -0.099,0.065 -0.326,0.079 -0.681,0.043 l -0.069,0.329 10.442,2.188 c 0.748,0.156 1.449,0.227 2.101,0.211 C 1.246,11.895 1.832,11.784 2.352,11.579 2.871,11.373 3.31,11.054 3.667,10.624 4.024,10.193 4.274,9.64 4.416,8.964 4.587,8.142 4.48,7.428 4.092,6.822 3.704,6.216 3.143,5.751 2.41,5.426 L 2.422,5.371 C 3.407,5.31 4.252,5.077 4.957,4.672 5.662,4.266 6.122,3.552 6.336,2.529 6.451,1.981 6.455,1.438 6.348,0.901 6.241,0.364 6.002,-0.135 5.631,-0.594 5.26,-1.053 4.746,-1.466 4.088,-1.833 3.431,-2.199 2.618,-2.484 1.65,-2.687 l -10.578,-2.216 -0.069,0.329 c 0.339,0.109 0.541,0.214 0.606,0.313 0.065,0.099 0.084,0.213 0.058,0.341 z"
             style="fill:#143670;fill-opacity:1;fill-rule:nonzero;stroke:none"
             id="path54" />
        </g>
        <g
           id="g56"
           transform="translate(143.3389,175.3306)">
          <path
             d="M 0,0 -1.07,7.116 -5.062,1.227 Z m -7.748,-3.078 c -0.022,-0.091 -0.008,-0.167 0.045,-0.227 0.053,-0.061 0.18,-0.115 0.379,-0.164 l -0.078,-0.326 -4.819,1.167 0.08,0.327 c 0.209,-0.012 0.368,0.011 0.479,0.071 0.109,0.06 0.236,0.188 0.381,0.383 0.058,0.082 0.207,0.305 0.449,0.669 0.242,0.364 0.555,0.821 0.937,1.372 0.383,0.55 0.811,1.162 1.282,1.836 0.47,0.673 0.943,1.36 1.422,2.061 0.476,0.701 0.945,1.384 1.404,2.051 0.459,0.666 0.867,1.263 1.226,1.791 0.358,0.528 0.651,0.957 0.873,1.287 0.225,0.329 0.338,0.503 0.344,0.522 0.022,0.09 -0.021,0.168 -0.131,0.233 -0.109,0.065 -0.226,0.122 -0.347,0.171 L -3.744,10.472 3.359,8.75 3.279,8.424 C 3.131,8.441 3.006,8.442 2.906,8.428 2.807,8.414 2.74,8.334 2.705,8.189 2.695,8.152 2.725,7.896 2.791,7.419 2.857,6.942 2.943,6.321 3.045,5.557 3.148,4.792 3.27,3.927 3.41,2.961 3.551,1.996 3.701,1.009 3.859,0 4.02,-1.008 4.17,-1.991 4.312,-2.947 4.455,-3.903 4.588,-4.762 4.711,-5.521 4.777,-5.883 4.846,-6.13 4.92,-6.264 4.994,-6.396 5.111,-6.483 5.275,-6.522 l -0.08,-0.327 -5.359,1.299 0.078,0.327 c 0.35,-0.066 0.549,10e-4 0.596,0.201 0.006,0.018 -0.01,0.151 -0.047,0.4 -0.035,0.249 -0.074,0.527 -0.113,0.835 -0.041,0.308 -0.082,0.6 -0.12,0.878 -0.039,0.279 -0.056,0.465 -0.05,0.56 l -6.45,1.563 c -0.3,-0.445 -0.542,-0.809 -0.726,-1.091 -0.184,-0.283 -0.33,-0.506 -0.436,-0.672 -0.109,-0.166 -0.185,-0.287 -0.232,-0.362 -0.047,-0.075 -0.074,-0.131 -0.084,-0.167"
             style="fill:#143670;fill-opacity:1;fill-rule:nonzero;stroke:none"
             id="path58" />
        </g>
        <g
           id="g60"
           transform="translate(164.0938,167.3311)">
          <path
             d="m 0,0 c 0.636,-0.52 1.171,-0.757 1.604,-0.714 0.434,0.044 0.78,0.225 1.04,0.543 0.26,0.318 0.368,0.694 0.324,1.128 C 2.924,1.39 2.584,1.866 1.948,2.386 L -1.695,5.361 -3.644,2.975 Z m -8.496,-2.968 c -0.083,-0.101 -0.118,-0.211 -0.106,-0.329 0.012,-0.118 0.143,-0.304 0.395,-0.557 l -0.213,-0.26 -4.468,3.648 0.213,0.26 c 0.298,-0.195 0.506,-0.287 0.624,-0.275 0.118,0.012 0.219,0.068 0.302,0.169 l 8.252,10.107 c 0.083,0.101 0.118,0.211 0.106,0.33 -0.011,0.118 -0.143,0.303 -0.394,0.557 l 0.212,0.26 L 4.366,4.46 C 5.97,3.15 6.895,1.907 7.14,0.731 7.385,-0.445 7.005,-1.647 6.002,-2.876 5.188,-3.874 4.257,-4.416 3.211,-4.501 c -1.045,-0.086 -2.118,0.114 -3.215,0.6 l -0.381,-5.69 c -0.039,-0.401 0.065,-0.703 0.311,-0.903 l -0.213,-0.261 -4.511,3.684 0.213,0.259 c 0.329,-0.245 0.595,-0.245 0.796,0.001 0.023,0.03 0.048,0.178 0.074,0.446 0.026,0.268 0.052,0.595 0.079,0.983 0.028,0.387 0.052,0.808 0.073,1.261 0.02,0.453 0.039,0.89 0.056,1.309 0.018,0.419 0.036,0.79 0.057,1.11 0.02,0.321 0.039,0.535 0.054,0.642 l -2.125,1.736 z"
             style="fill:#143670;fill-opacity:1;fill-rule:nonzero;stroke:none"
             id="path62" />
        </g>
        <g
           id="g64"
           transform="translate(171.5015,154.957)">
          <path
             d="m 0,0 c -0.117,-0.016 -0.301,-0.086 -0.552,-0.21 -0.168,-0.083 -0.279,-0.33 -0.336,-0.743 -0.056,-0.413 -0.055,-0.912 0.004,-1.497 0.06,-0.584 0.184,-1.226 0.372,-1.924 0.188,-0.698 0.444,-1.373 0.765,-2.026 0.619,-1.256 1.22,-2.105 1.802,-2.546 0.582,-0.442 1.149,-0.526 1.702,-0.253 0.301,0.148 0.389,0.509 0.263,1.081 -0.127,0.573 -0.342,1.263 -0.647,2.07 -0.305,0.807 -0.63,1.677 -0.975,2.61 C 2.053,-2.505 1.812,-1.594 1.675,-0.704 1.537,0.186 1.573,0.999 1.782,1.737 1.99,2.475 2.496,3.041 3.3,3.438 3.937,3.752 4.586,3.89 5.249,3.853 5.912,3.816 6.559,3.624 7.187,3.278 7.815,2.933 8.42,2.435 9.001,1.785 9.582,1.135 10.1,0.35 10.554,-0.571 c 0.421,-0.855 0.758,-1.676 1.012,-2.467 0.255,-0.79 0.455,-1.503 0.603,-2.138 0.146,-0.636 0.26,-1.172 0.342,-1.611 0.08,-0.439 0.162,-0.741 0.245,-0.909 0.082,-0.167 0.186,-0.283 0.311,-0.346 0.124,-0.063 0.258,-0.112 0.4,-0.146 l 0.036,-0.327 -4.346,0.012 0.002,0.376 0.277,0.136 C 9.587,-7.917 9.66,-7.677 9.659,-7.272 9.657,-6.867 9.595,-6.383 9.473,-5.818 9.351,-5.255 9.179,-4.642 8.957,-3.981 8.735,-3.32 8.479,-2.697 8.19,-2.111 7.654,-1.022 7.153,-0.323 6.687,-0.012 6.222,0.3 5.846,0.385 5.562,0.245 5.276,0.104 5.138,-0.151 5.145,-0.523 5.15,-0.895 5.239,-1.34 5.412,-1.858 c 0.173,-0.519 0.391,-1.098 0.654,-1.738 0.264,-0.64 0.515,-1.307 0.753,-2.002 0.239,-0.694 0.435,-1.387 0.59,-2.082 0.154,-0.693 0.205,-1.355 0.152,-1.985 -0.054,-0.63 -0.245,-1.213 -0.574,-1.75 -0.328,-0.536 -0.852,-0.982 -1.572,-1.338 -0.553,-0.272 -1.152,-0.428 -1.8,-0.466 -0.647,-0.038 -1.318,0.111 -2.013,0.444 -0.696,0.334 -1.393,0.894 -2.094,1.683 -0.701,0.788 -1.387,1.861 -2.055,3.217 -0.52,1.055 -0.918,1.987 -1.193,2.799 -0.276,0.811 -0.474,1.519 -0.596,2.126 -0.122,0.605 -0.201,1.093 -0.236,1.46 -0.036,0.367 -0.091,0.627 -0.165,0.777 -0.049,0.101 -0.126,0.172 -0.231,0.214 -0.103,0.042 -0.219,0.085 -0.344,0.127 l -0.073,0.339 5.387,0.345 z"
             style="fill:#143670;fill-opacity:1;fill-rule:nonzero;stroke:none"
             id="path66" />
        </g>
        <g
           id="g68"
           transform="translate(66.2263,116.6091)">
          <path
             d="m 0,0 c 5.313,-30.378 32.11,-53.035 63.174,-53.035 31.064,0 57.86,22.657 63.174,53.035 -4.872,1.378 -8.422,5.879 -8.422,11.114 0,5.234 3.55,9.736 8.422,11.114 C 121.034,52.606 94.238,75.262 63.174,75.262 32.11,75.262 5.313,52.606 0,22.228 4.871,20.85 8.422,16.348 8.422,11.114 8.422,5.879 4.872,1.378 0,0 m 63.174,-57.356 c -33.9,0 -63.038,25.281 -67.777,58.805 l -0.325,2.294 2.311,0.164 c 3.767,0.266 6.718,3.432 6.718,7.207 0,3.774 -2.951,6.94 -6.718,7.207 l -2.311,0.163 0.325,2.294 c 4.739,33.524 33.877,58.805 67.777,58.805 33.9,0 63.038,-25.281 67.777,-58.805 l 0.324,-2.294 -2.31,-0.163 c -3.768,-0.267 -6.718,-3.433 -6.718,-7.207 0,-3.775 2.95,-6.941 6.718,-7.207 l 2.31,-0.164 -0.324,-2.294 C 126.212,-32.075 97.074,-57.356 63.174,-57.356"
             style="fill:#143670;fill-opacity:1;fill-rule:nonzero;stroke:none"
             id="path70" />
        </g>
        <g
           id="g72"
           transform="translate(199.4677,127.723)">
          <path
             d="m 0,0 c 0,-2.076 -1.683,-3.759 -3.759,-3.759 -2.076,0 -3.759,1.683 -3.759,3.759 0,2.076 1.683,3.759 3.759,3.759 C -1.683,3.759 0,2.076 0,0"
             style="fill:#143670;fill-opacity:1;fill-rule:nonzero;stroke:none"
             id="path74" />
        </g>
        <g
           id="g76"
           transform="translate(66.8506,127.723)">
          <path
             d="m 0,0 c 0,-2.076 -1.683,-3.759 -3.759,-3.759 -2.076,0 -3.759,1.683 -3.759,3.759 0,2.076 1.683,3.759 3.759,3.759 C -1.683,3.759 0,2.076 0,0"
             style="fill:#143670;fill-opacity:1;fill-rule:nonzero;stroke:none"
             id="path78" />
        </g>
        <g
           id="g80"
           transform="translate(86.5397,115.3863)">
          <path
             d="M 0,0 C 1.34,-4.641 4.28,-8.378 6.954,-12.268 4.52,-8.728 3.495,-4.198 2.217,0 Z"
             style="fill:#143670;fill-opacity:1;fill-rule:nonzero;stroke:none"
             id="path82" />
        </g>
        <g
           id="g84"
           transform="translate(82.8624,115.3863)">
          <path
             d="M 0,0 C 1.43,-5.38 4.635,-9.799 7.709,-14.27 4.875,-10.147 3.577,-4.937 2.2,0 Z"
             style="fill:#143670;fill-opacity:1;fill-rule:nonzero;stroke:none"
             id="path86" />
        </g>
        <g
           id="g88"
           transform="translate(79.2059,115.3863)">
          <path
             d="M 0,0 C 1.507,-6.12 4.971,-11.222 8.443,-16.273 5.21,-11.569 3.656,-5.676 2.194,0 Z"
             style="fill:#143670;fill-opacity:1;fill-rule:nonzero;stroke:none"
             id="path90" />
        </g>
        <g
           id="g92"
           transform="translate(75.5607,115.3863)">
          <path
             d="M 0,0 C 1.574,-6.862 5.296,-12.645 9.166,-18.275 5.535,-12.992 3.717,-6.417 2.183,0 Z"
             style="fill:#143670;fill-opacity:1;fill-rule:nonzero;stroke:none"
             id="path94" />
        </g>
        <g
           id="g96"
           transform="translate(71.9373,115.3863)">
          <path
             d="M 0,0 C 1.633,-7.602 5.602,-14.071 9.868,-20.277 5.84,-14.417 3.773,-7.158 2.174,0 Z"
             style="fill:#143670;fill-opacity:1;fill-rule:nonzero;stroke:none"
             id="path98" />
        </g>
        <g
           id="g100"
           transform="translate(68.5343,115.3863)">
          <path
             d="M 0,0 C 1.685,-8.345 5.885,-15.512 10.548,-22.295 6.123,-15.858 3.829,-7.899 2.174,0 Z"
             style="fill:#143670;fill-opacity:1;fill-rule:nonzero;stroke:none"
             id="path102" />
        </g>
        <g
           id="g104"
           transform="translate(170.0443,115.3863)">
          <path
             d="M 0,0 C -1.279,-4.198 -2.304,-8.729 -4.737,-12.268 -2.063,-8.379 0.876,-4.641 2.216,0 Z"
             style="fill:#143670;fill-opacity:1;fill-rule:nonzero;stroke:none"
             id="path106" />
        </g>
        <g
           id="g108"
           transform="translate(173.7385,115.3863)">
          <path
             d="M 0,0 C -1.377,-4.937 -2.675,-10.148 -5.509,-14.271 -2.435,-9.799 0.771,-5.38 2.201,0 Z"
             style="fill:#143670;fill-opacity:1;fill-rule:nonzero;stroke:none"
             id="path110" />
        </g>
        <g
           id="g112"
           transform="translate(177.4004,115.3863)">
          <path
             d="M 0,0 C -1.462,-5.676 -3.016,-11.57 -6.249,-16.273 -2.777,-11.222 0.687,-6.12 2.194,0 Z"
             style="fill:#143670;fill-opacity:1;fill-rule:nonzero;stroke:none"
             id="path114" />
        </g>
        <g
           id="g116"
           transform="translate(181.0565,115.3863)">
          <path
             d="M 0,0 C -1.535,-6.417 -3.352,-12.992 -6.984,-18.275 -3.114,-12.645 0.608,-6.862 2.182,0 Z"
             style="fill:#143670;fill-opacity:1;fill-rule:nonzero;stroke:none"
             id="path118" />
        </g>
        <g
           id="g120"
           transform="translate(184.6901,115.3863)">
          <path
             d="M 0,0 C -1.599,-7.158 -3.666,-14.417 -7.695,-20.278 -3.428,-14.071 0.541,-7.602 2.174,0 Z"
             style="fill:#143670;fill-opacity:1;fill-rule:nonzero;stroke:none"
             id="path122" />
        </g>
        <g
           id="g124"
           transform="translate(188.5336,115.3863)">
          <path
             d="M 0,0 C -1.655,-7.899 -4.079,-15.768 -8.504,-22.205 -3.841,-15.422 0.49,-8.345 2.175,0 Z"
             style="fill:#143670;fill-opacity:1;fill-rule:nonzero;stroke:none"
             id="path126" />
        </g>
        <g
           id="g128"
           transform="translate(94.8395,138.5059)">
          <path
             d="M 0,0 C 4.493,15.031 18.441,26.022 34.914,26.022 51.387,26.022 65.335,15.031 69.828,0 h 4.049 C 69.272,17.206 53.552,29.917 34.914,29.917 16.275,29.917 0.556,17.206 -4.049,0 Z"
             style="fill:#143670;fill-opacity:1;fill-rule:nonzero;stroke:none"
             id="path130" />
        </g>
        <g
           id="g132"
           transform="translate(164.6675,117.6722)">
          <path
             d="m 0,0 c -4.493,-15.031 -18.441,-26.022 -34.914,-26.022 -16.474,0 -30.421,10.991 -34.914,26.022 h -4.049 c 4.605,-17.206 20.324,-29.917 38.963,-29.917 18.638,0 34.358,12.711 38.963,29.917 z"
             style="fill:#143670;fill-opacity:1;fill-rule:nonzero;stroke:none"
             id="path134" />
        </g>
        <path
           d="m 66.044,116.428 h 28.795 v 1.244 H 66.044 Z"
           style="fill:#143670;fill-opacity:1;fill-rule:nonzero;stroke:none"
           id="path136" />
        <path
           d="m 66.044,138.506 h 28.795 v 1.244 H 66.044 Z"
           style="fill:#143670;fill-opacity:1;fill-rule:nonzero;stroke:none"
           id="path138" />
        <path
           d="m 164.731,116.428 h 28.795 v 1.244 h -28.795 z"
           style="fill:#143670;fill-opacity:1;fill-rule:nonzero;stroke:none"
           id="path140" />
        <path
           d="m 164.731,138.506 h 28.795 v 1.244 h -28.795 z"
           style="fill:#143670;fill-opacity:1;fill-rule:nonzero;stroke:none"
           id="path142" />
        <g
           id="g144"
           transform="translate(111.3169,134.4316)">
          <path
             d="m 0,0 c 1.426,0.095 2.186,-0.951 -0.855,-1.236 -3.042,-0.285 -6.939,-1.14 -6.844,-2.376 0.095,-1.236 7.224,-2.661 22.337,-3.612 15.113,-0.951 16.539,-2.661 17.205,-5.228 0.665,-2.566 -5.323,-9.41 -13.783,-9.315 -8.46,0.095 -14.448,6.464 -16.159,12.452 0,0 -9.885,1.426 -13.117,2.661 -3.232,1.236 -4.658,2.947 -0.38,4.468 C -7.319,-0.665 0,0 0,0"
             style="fill:#f2561a;fill-opacity:1;fill-rule:nonzero;stroke:none"
             id="path146" />
        </g>
        <g
           id="g148"
           transform="translate(147.4831,123.5057)">
          <path
             d="m 0,0 c -1.426,-0.095 -2.186,0.951 0.855,1.236 3.042,0.285 6.939,1.14 6.844,2.376 -0.095,1.236 -7.224,2.661 -22.337,3.612 -15.113,0.95 -16.539,2.661 -17.205,5.228 -0.665,2.566 5.323,9.41 13.783,9.315 8.46,-0.095 14.448,-6.464 16.159,-12.452 0,0 9.885,-1.426 13.117,-2.661 3.232,-1.236 4.658,-2.947 0.38,-4.468 C 7.319,0.665 0,0 0,0"
             style="fill:#f2561a;fill-opacity:1;fill-rule:nonzero;stroke:none"
             id="path150" />
        </g>
        <g
           id="g152"
           transform="translate(146.1215,121.55)">
          <path
             d="m 0,0 c -0.291,0.089 -0.563,0.206 -0.803,0.355 0.118,-1.409 -0.521,-3.073 -1.842,-4.761 -2.397,-3.061 -7.47,-6.606 -13.926,-6.606 -0.066,0 -0.131,0 -0.197,0.001 -8.219,0.092 -14.527,5.535 -17.262,11.525 -1.697,-4.751 -3.061,-8.538 -3.602,-9.981 -2.592,-6.92 2.086,-9.04 5.221,-7.84 4.924,1.884 9.486,3.468 15.304,3.468 5.818,0 10.381,-1.584 15.304,-3.468 3.136,-1.2 7.813,0.92 5.221,7.84 C 2.897,-8.077 1.61,-4.505 0,0"
             style="fill:#143670;fill-opacity:1;fill-rule:nonzero;stroke:none"
             id="path154" />
        </g>
        <g
           id="g156"
           transform="translate(129.4469,147.3985)">
          <path
             d="M 0,0 C 3.036,-0.034 5.804,-0.81 8.235,-2.062 6.561,2.692 5.325,6.233 5.1,6.946 4.34,9.359 2.304,10.785 -0.432,10.785 v 0 0 c -2.737,0 -4.772,-1.426 -5.533,-3.839 C -6.196,6.212 -7.498,2.482 -9.249,-2.486 -6.719,-1.023 -3.564,0.03 0,0"
             style="fill:#143670;fill-opacity:1;fill-rule:nonzero;stroke:none"
             id="path158" />
        </g>
        <g
           id="g160"
           transform="translate(165.69,129.6289)">
          <path
             d="M 0,0 H -0.797 V 0.692 H 1.559 V 0 H 0.762 V -4.159 H 0 Z"
             style="fill:#143670;fill-opacity:1;fill-rule:nonzero;stroke:none"
             id="path162" />
        </g>
        <path
           d="m 167.617,130.321 h 0.763 v -4.852 h -0.763 z"
           style="fill:#143670;fill-opacity:1;fill-rule:nonzero;stroke:none"
           id="path164" />
        <g
           id="g166"
           transform="translate(169.187,125.7119)">
          <path
             d="M 0,0 C -0.192,0.208 -0.288,0.502 -0.288,0.881 V 3.486 C -0.288,3.865 -0.192,4.159 0,4.367 0.191,4.575 0.47,4.679 0.835,4.679 1.2,4.679 1.479,4.575 1.67,4.367 1.862,4.159 1.958,3.865 1.958,3.486 V 2.974 H 1.237 v 0.561 c 0,0.301 -0.127,0.451 -0.382,0.451 -0.253,0 -0.38,-0.15 -0.38,-0.451 v -2.71 c 0,-0.296 0.127,-0.443 0.38,-0.443 0.255,0 0.382,0.147 0.382,0.443 V 1.566 H 1.958 V 0.881 C 1.958,0.502 1.862,0.208 1.67,0 1.479,-0.208 1.2,-0.312 0.835,-0.312 0.47,-0.312 0.191,-0.208 0,0"
             style="fill:#143670;fill-opacity:1;fill-rule:nonzero;stroke:none"
             id="path168" />
        </g>
        <g
           id="g170"
           transform="translate(173.023,127.0781)">
          <path
             d="M 0,0 -0.34,2.397 H -0.354 L -0.687,0 Z m -0.832,3.243 h 1.033 l 0.79,-4.851 H 0.229 L 0.09,-0.645 v -0.014 h -0.866 l -0.139,-0.949 h -0.707 z"
             style="fill:#143670;fill-opacity:1;fill-rule:nonzero;stroke:none"
             id="path172" />
        </g>
        <g
           id="g174"
           transform="translate(175.4214,128.2422)">
          <path
             d="m 0,0 c 0.152,0 0.267,0.039 0.343,0.118 0.076,0.078 0.114,0.21 0.114,0.395 V 0.888 C 0.457,1.062 0.426,1.189 0.363,1.269 0.301,1.347 0.203,1.387 0.069,1.387 H -0.277 V 0 Z M -1.04,2.079 H 0.09 C 0.482,2.079 0.769,1.988 0.949,1.806 1.13,1.623 1.22,1.343 1.22,0.964 V 0.665 c 0,-0.503 -0.167,-0.822 -0.499,-0.956 v -0.014 c 0.184,-0.055 0.315,-0.169 0.391,-0.34 0.076,-0.17 0.115,-0.399 0.115,-0.686 v -0.853 c 0,-0.138 0.004,-0.25 0.013,-0.336 0.01,-0.085 0.032,-0.169 0.07,-0.252 H 0.533 c -0.027,0.078 -0.046,0.152 -0.055,0.221 -0.009,0.07 -0.014,0.195 -0.014,0.374 v 0.888 c 0,0.222 -0.036,0.376 -0.108,0.464 -0.071,0.088 -0.195,0.132 -0.371,0.132 H -0.277 V -2.772 H -1.04 Z"
             style="fill:#143670;fill-opacity:1;fill-rule:nonzero;stroke:none"
             id="path176" />
        </g>
        <g
           id="g178"
           transform="translate(177.1743,130.3213)">
          <path
             d="M 0,0 H 2.079 V -0.692 H 0.763 V -1.976 H 1.809 V -2.668 H 0.763 v -1.49 H 2.079 V -4.852 H 0 Z"
             style="fill:#143670;fill-opacity:1;fill-rule:nonzero;stroke:none"
             id="path180" />
        </g>
        <g
           id="g182"
           transform="translate(180.2867,129.6289)">
          <path
             d="M 0,0 H -0.797 V 0.692 H 1.56 V 0 H 0.763 V -4.159 H 0 Z"
             style="fill:#143670;fill-opacity:1;fill-rule:nonzero;stroke:none"
             id="path184" />
        </g>
        <g
           id="g186"
           transform="translate(80.6275,125.127)">
          <path
             d="M 0,0 C 0.208,0 0.367,0.062 0.479,0.185 0.59,0.308 0.646,0.508 0.646,0.784 V 4.983 C 0.646,5.261 0.59,5.46 0.479,5.583 0.367,5.706 0.208,5.768 0,5.768 H -0.646 V 0 Z m -1.915,6.922 h 1.938 c 0.631,0 1.103,-0.17 1.419,-0.508 C 1.757,6.075 1.915,5.579 1.915,4.926 V 0.843 C 1.915,0.188 1.757,-0.308 1.442,-0.646 1.126,-0.984 0.654,-1.153 0.023,-1.153 h -1.938 z"
             style="fill:#143670;fill-opacity:1;fill-rule:nonzero;stroke:none"
             id="path188" />
        </g>
        <path
           d="m 83.396,132.049 h 1.269 v -8.075 h -1.269 z"
           style="fill:#143670;fill-opacity:1;fill-rule:nonzero;stroke:none"
           id="path190" />
        <g
           id="g192"
           transform="translate(86.3721,122.4277)">
          <path
             d="M 0,0 C -0.192,0.101 -0.289,0.273 -0.289,0.52 V 0.635 H 0.565 V 0.542 C 0.565,0.466 0.59,0.408 0.64,0.369 0.69,0.331 0.75,0.312 0.819,0.312 c 0.108,0 0.184,0.021 0.231,0.063 0.046,0.042 0.069,0.113 0.069,0.214 0,0.107 -0.035,0.184 -0.104,0.23 -0.069,0.046 -0.177,0.07 -0.323,0.07 H 0.634 V 1.707 H 1.2 V 1.096 C 1.461,1.096 1.659,1.054 1.793,0.969 1.928,0.885 1.996,0.746 1.996,0.554 1.996,0.27 1.899,0.081 1.707,-0.012 1.515,-0.104 1.219,-0.149 0.819,-0.149 0.465,-0.149 0.192,-0.1 0,0 M -0.508,1.955 C -0.823,2.306 -0.98,2.807 -0.98,3.461 V 3.922 H 0.219 V 3.368 c 0,-0.522 0.219,-0.784 0.657,-0.784 0.216,0 0.379,0.063 0.491,0.19 0.111,0.127 0.167,0.333 0.167,0.618 0,0.337 -0.077,0.635 -0.231,0.893 C 1.149,4.543 0.865,4.853 0.45,5.214 -0.073,5.676 -0.438,6.093 -0.646,6.466 -0.854,6.839 -0.958,7.26 -0.958,7.729 c 0,0.638 0.162,1.132 0.485,1.482 0.323,0.351 0.792,0.525 1.407,0.525 0.608,0 1.067,-0.174 1.379,-0.525 C 2.624,8.861 2.78,8.359 2.78,7.706 V 7.371 H 1.58 V 7.786 C 1.58,8.063 1.526,8.266 1.419,8.393 1.311,8.52 1.153,8.583 0.946,8.583 0.523,8.583 0.312,8.325 0.312,7.81 0.312,7.518 0.39,7.244 0.548,6.99 0.706,6.737 0.992,6.429 1.407,6.067 1.938,5.606 2.303,5.187 2.503,4.811 2.703,4.434 2.803,3.991 2.803,3.483 2.803,2.822 2.64,2.314 2.313,1.961 1.986,1.607 1.511,1.431 0.888,1.431 c -0.615,0 -1.08,0.174 -1.396,0.524"
             style="fill:#143670;fill-opacity:1;fill-rule:nonzero;stroke:none"
             id="path194" />
        </g>
      </g>
    </g>
  </g>
</svg>
