<svg xmlns="http://www.w3.org/2000/svg" viewBox="0 0 24 16" width="24" height="16" role="img" aria-label="United States">
  <rect width="24" height="16" fill="#ffffff"/>
  <g fill="#b22234">
    <rect y="0" width="24" height="1.23"/>
    <rect y="2.46" width="24" height="1.23"/>
    <rect y="4.92" width="24" height="1.23"/>
    <rect y="7.38" width="24" height="1.23"/>
    <rect y="9.84" width="24" height="1.23"/>
    <rect y="12.3" width="24" height="1.23"/>
    <rect y="14.76" width="24" height="1.24"/>
  </g>
  <rect width="10.5" height="8.6" fill="#3c3b6e"/>
  <g fill="#ffffff" opacity="0.95">
    <circle cx="1.5" cy="1.4" r="0.35"/>
    <circle cx="3.5" cy="1.4" r="0.35"/>
    <circle cx="5.5" cy="1.4" r="0.35"/>
    <circle cx="7.5" cy="1.4" r="0.35"/>
    <circle cx="9.5" cy="1.4" r="0.35"/>

    <circle cx="2.5" cy="2.7" r="0.35"/>
    <circle cx="4.5" cy="2.7" r="0.35"/>
    <circle cx="6.5" cy="2.7" r="0.35"/>
    <circle cx="8.5" cy="2.7" r="0.35"/>

    <circle cx="1.5" cy="4.0" r="0.35"/>
    <circle cx="3.5" cy="4.0" r="0.35"/>
    <circle cx="5.5" cy="4.0" r="0.35"/>
    <circle cx="7.5" cy="4.0" r="0.35"/>
    <circle cx="9.5" cy="4.0" r="0.35"/>

    <circle cx="2.5" cy="5.3" r="0.35"/>
    <circle cx="4.5" cy="5.3" r="0.35"/>
    <circle cx="6.5" cy="5.3" r="0.35"/>
    <circle cx="8.5" cy="5.3" r="0.35"/>

    <circle cx="1.5" cy="6.6" r="0.35"/>
    <circle cx="3.5" cy="6.6" r="0.35"/>
    <circle cx="5.5" cy="6.6" r="0.35"/>
    <circle cx="7.5" cy="6.6" r="0.35"/>
    <circle cx="9.5" cy="6.6" r="0.35"/>
  </g>
</svg>
